<svg version="1.1" id="Layer_1" xmlns="http://www.w3.org/2000/svg" xmlns:xlink="http://www.w3.org/1999/xlink" x="0px" y="0px"
	 width="205px" height="45px" viewBox="0 0 205 45" enable-background="new 0 0 205 45" xml:space="preserve">
<g>
	<path fill="#FFFFFF" d="M61.847,41.264H2.5V3.736h59.347V41.264z M9.482,34.283h45.383V10.719H9.482V34.283z"/>
	<g enable-background="new    ">
		<path fill="#FFFFFF" d="M78.431,9.201L88.479,9.16c6.867-0.027,10.994,3.278,11.017,8.88c0.024,6.026-4.771,10.024-12.064,10.055
			l-2.212,0.009l0.032,7.883l-6.713,0.027L78.431,9.201z M85.167,15.045l0.029,7.187l3.413-0.014
			c2.406-0.01,3.913-1.329,3.904-3.492c-0.008-2.241-1.838-3.702-4.554-3.69L85.167,15.045z"/>
		<path fill="#FFFFFF" d="M108.611,27.197c0.005,1.393,0.324,3.128,2.533,3.119c1.01-0.004,1.899-0.393,2.635-0.976L113.73,16.94
			l6.713-0.027l0.074,18.93l-4.851,0.021l-1.058-2.47c-1.545,1.746-3.676,2.72-6.002,2.729c-4.035,0.016-6.686-2.832-6.703-7.391
			l-0.047-11.746l6.71-0.027L108.611,27.197z"/>
		<path fill="#FFFFFF" d="M124.673,16.896l5.239-0.021l0.593,2.933c1.388-1.976,3.519-3.104,5.769-3.113
			c1.164-0.005,2.444,0.3,3.377,0.836l-1.489,5.725c-0.815-0.422-1.979-0.688-2.989-0.683c-1.436,0.005-2.752,0.629-3.756,1.714
			l0.046,11.513l-6.712,0.027L124.673,16.896z"/>
		<path fill="#FFFFFF" d="M141.137,10.416c-0.008-2.317,1.537-3.869,3.826-3.878c2.289-0.01,3.848,1.53,3.857,3.848
			c0.008,2.279-1.537,3.83-3.826,3.84C142.705,14.236,141.146,12.695,141.137,10.416z M141.63,16.828l6.712-0.027l0.075,18.932
			l-6.712,0.026L141.63,16.828z"/>
		<path fill="#FFFFFF" d="M151.516,34.675l1.418-4.757c1.982,0.688,4.39,1.141,6.059,1.135c1.668-0.007,2.712-0.514,2.708-1.246
			c-0.009-2.32-9.931,0.271-9.959-7.031c-0.019-4.134,3.155-6.388,9.051-6.411c2.29-0.01,4.813,0.329,6.679,0.901l-1.262,4.832
			c-1.902-0.454-3.768-0.718-5.279-0.711c-1.861,0.007-2.791,0.396-2.789,1.053c0.012,2.164,10.166-0.079,10.194,7.146
			c0.017,4.094-3.231,6.465-8.976,6.488C156.605,36.086,153.693,35.557,151.516,34.675z"/>
		<path fill="#FFFFFF" d="M171.154,16.709l4.85-0.02l0.979,2.275c1.586-1.628,3.756-2.525,6.121-2.535
			c2.601-0.011,4.582,1.024,5.793,2.912c1.545-1.822,3.789-2.951,6.506-2.962c4.345-0.017,7.033,2.947,7.053,7.775l0.046,11.357
			l-6.712,0.027l-0.04-10.239c-0.006-1.622-0.519-3.126-2.845-3.116c-1.049,0.004-1.979,0.317-2.793,0.898
			c0.043,0.35,0.043,0.734,0.045,1.121l0.047,11.357l-6.674,0.025l-0.041-10.238c-0.004-1.429-0.4-3.125-2.883-3.116
			c-0.971,0.004-1.9,0.278-2.713,0.861l0.051,12.517l-6.713,0.026L171.154,16.709z"/>
	</g>
</g>
</svg>
